<svg xml:space="preserve" style="max-height: 500px" viewBox="98.8 8.4 197.6 63.2" y="0px" x="0px" xmlns:xlink="http://www.w3.org/1999/xlink" xmlns="http://www.w3.org/2000/svg" id="Layer_1" version="1.1" width="197.6" height="63.2">
<style type="text/css">
	.st0{fill:#000319;}
	.st1{fill:#CB91F9;}
	.st2{fill:#FFFFFF;}
</style>
<rect height="80" width="400" class="st0"/>
<g>
	<rect height="7.7" width="10.15" class="st1" y="13.44" x="226.07"/>
	<g>
		<path d="M183.57,58.69h-10.15v-3.67h-0.12c-0.45,0.82-1.02,1.53-1.71,2.14c-0.69,0.61-1.49,1.12-2.38,1.53&#10;&#9;&#9;&#9;c-0.9,0.41-1.84,0.7-2.84,0.89c-1,0.18-1.99,0.28-2.97,0.28c-2.69,0-5.1-0.49-7.21-1.47c-2.12-0.98-3.9-2.3-5.35-3.97&#10;&#9;&#9;&#9;c-1.45-1.67-2.56-3.6-3.33-5.78c-0.77-2.18-1.16-4.49-1.16-6.94c0-2.77,0.47-5.28,1.41-7.52c0.94-2.24,2.18-4.15,3.73-5.72&#10;&#9;&#9;&#9;c1.55-1.57,3.35-2.77,5.41-3.61c2.06-0.83,4.23-1.25,6.51-1.25c1.39,0,2.63,0.15,3.73,0.46c1.1,0.31,2.06,0.69,2.87,1.16&#10;&#9;&#9;&#9;c0.81,0.47,1.49,0.98,2.02,1.53c0.53,0.55,0.96,1.09,1.28,1.62h0.12v-3.61h10.15V58.69z M156.49,41.81c0,0.82,0.15,1.71,0.46,2.69&#10;&#9;&#9;&#9;c0.31,0.98,0.79,1.91,1.47,2.78c0.67,0.88,1.54,1.61,2.6,2.2c1.06,0.59,2.36,0.89,3.91,0.89c1.59,0,2.92-0.3,4-0.89&#10;&#9;&#9;&#9;c1.08-0.59,1.96-1.32,2.63-2.2c0.67-0.88,1.15-1.82,1.44-2.84c0.28-1.02,0.43-1.94,0.43-2.75c0-1.02-0.17-2.04-0.52-3.06&#10;&#9;&#9;&#9;c-0.35-1.02-0.88-1.95-1.59-2.78c-0.71-0.84-1.61-1.51-2.69-2.02c-1.08-0.51-2.33-0.76-3.76-0.76c-1.47,0-2.72,0.28-3.76,0.83&#10;&#9;&#9;&#9;c-1.04,0.55-1.91,1.25-2.6,2.11c-0.69,0.86-1.2,1.79-1.53,2.81C156.65,39.84,156.49,40.84,156.49,41.81z" class="st2"/>
		<path d="M222.34,24.76l-17,45.24h-10.76l5.38-13.02l-12.6-32.22h10.82l6.79,19.69h0.12l6.48-19.69H222.34z" class="st2"/>
		<rect height="33.93" width="10.15" class="st2" y="24.76" x="226.07"/>
		<path d="M243.55,24.76h9.48v3.61h0.12c0.2-0.37,0.51-0.81,0.92-1.34c0.41-0.53,0.97-1.05,1.68-1.56&#10;&#9;&#9;&#9;c0.71-0.51,1.62-0.95,2.72-1.31c1.1-0.37,2.45-0.55,4.03-0.55c0.73,0,1.54,0.08,2.42,0.24c0.88,0.16,1.74,0.47,2.6,0.92&#10;&#9;&#9;&#9;c0.86,0.45,1.69,1.06,2.51,1.83c0.81,0.77,1.57,1.79,2.26,3.06c1.06-1.67,2.47-3.1,4.22-4.28c1.75-1.18,3.93-1.77,6.54-1.77&#10;&#9;&#9;&#9;c0.61,0,1.28,0.04,2.02,0.12c0.73,0.08,1.5,0.24,2.29,0.49c0.79,0.24,1.59,0.59,2.38,1.04c0.8,0.45,1.54,1.04,2.23,1.77&#10;&#9;&#9;&#9;c0.77,0.86,1.41,1.66,1.9,2.41c0.49,0.76,0.87,1.62,1.13,2.6c0.26,0.98,0.44,2.11,0.52,3.39c0.08,1.28,0.12,2.86,0.12,4.74v18.53&#10;&#9;&#9;&#9;H285.5V40.65c0-0.69-0.03-1.48-0.09-2.35c-0.06-0.88-0.26-1.69-0.58-2.45c-0.33-0.75-0.84-1.4-1.53-1.93&#10;&#9;&#9;&#9;c-0.69-0.53-1.69-0.79-3-0.79c-1.43,0-2.52,0.27-3.27,0.83c-0.75,0.55-1.31,1.21-1.65,1.99c-0.35,0.77-0.55,1.55-0.61,2.32&#10;&#9;&#9;&#9;c-0.06,0.77-0.09,1.41-0.09,1.9v18.53h-10.15V40.22c0-0.45-0.03-1.07-0.09-1.86c-0.06-0.79-0.24-1.58-0.55-2.35&#10;&#9;&#9;&#9;c-0.31-0.77-0.81-1.45-1.5-2.02c-0.69-0.57-1.67-0.86-2.93-0.86c-1.43,0-2.53,0.3-3.3,0.89c-0.77,0.59-1.35,1.29-1.71,2.11&#10;&#9;&#9;&#9;c-0.37,0.82-0.58,1.65-0.64,2.51c-0.06,0.86-0.09,1.53-0.09,2.02v18.04h-10.15V24.76z" class="st2"/>
	</g>
	<path d="M140.49,59.45h-11.27c-3.29-6.6-8.43-12.14-14.75-15.94V43.5h-0.04c0.01,0.01,0.02,0.01,0.04,0.02v15.94&#10;&#9;&#9;h-10.11V28.72c3.41,0.69,6.69,1.72,9.8,3.07c0.1,0.04,0.2,0.09,0.3,0.13c6.18,2.73,11.68,6.69,16.19,11.57&#10;&#9;&#9;c1.08,1.17,2.1,2.39,3.06,3.66C136.54,50.87,138.83,55.01,140.49,59.45z" class="st1"/>
	<path d="M104.36,10h11.27c3.29,6.6,8.43,12.14,14.75,15.94v0.02h0.04c-0.01-0.01-0.02-0.01-0.04-0.02V10h10.11v30.73&#10;&#9;&#9;c-3.41-0.69-6.69-1.72-9.8-3.07c-0.1-0.04-0.2-0.09-0.3-0.13c-6.18-2.73-11.68-6.69-16.19-11.57c-1.08-1.17-2.1-2.39-3.06-3.66&#10;&#9;&#9;C108.3,18.58,106.01,14.44,104.36,10z" class="st2"/>
</g>
</svg>